<svg width="174" height="80" viewBox="0 0 174 80" fill="none" xmlns="http://www.w3.org/2000/svg">
<path fill-rule="evenodd" clip-rule="evenodd" d="M156.7 57.9202C154.705 55.4117 151.585 54.1575 147.343 54.1575H146.289C144.303 54.138 142.331 54.4974 140.478 55.2167C138.734 55.8995 137.108 56.8529 135.658 58.0424C134.243 59.2105 133.04 60.6147 132.099 62.1935C131.163 63.7349 130.514 65.4351 130.184 67.2105C129.876 68.8066 129.894 70.4492 130.238 72.0379C130.555 73.5306 131.221 74.9261 132.181 76.1088C133.204 77.339 134.503 78.3075 135.971 78.9346C137.743 79.682 139.655 80.0448 141.577 79.9956H142.633C144.619 80.0137 146.591 79.6537 148.444 78.9346C150.188 78.2529 151.814 77.2993 153.263 76.1088C154.656 74.9561 155.847 73.5778 156.789 72.0307C157.71 70.554 158.348 68.9165 158.669 67.2032C159.351 63.5261 158.697 60.4324 156.701 57.9202H156.7ZM134.747 33.7046C134.506 30.1456 133.352 26.71 131.397 23.7325C129.471 20.8485 126.644 18.5715 122.915 16.8979C119.184 15.2262 113.8 14.3894 107.798 14.3894C101.469 14.3894 95.9242 15.2663 91.1597 17.0219C86.3952 18.7775 82.3472 21.1402 79.0173 24.1099C75.721 27.0314 73.018 30.5662 71.0572 34.5195C69.0665 38.5393 67.6523 42.8223 66.8568 47.2408C66.1167 51.1876 65.8627 55.2109 66.1005 59.2201C66.2815 62.9257 67.4827 66.5079 69.57 69.5677C71.6412 72.5776 74.7697 75.221 78.972 77.0732C83.1724 78.9254 88.8854 79.8333 96.12 79.8333C98.2801 79.8333 100.623 79.7276 103.15 79.5179C105.789 79.2972 108.417 78.9437 111.021 78.4587C113.779 77.9458 116.506 77.2756 119.188 76.4516C121.099 75.868 122.977 75.1778 124.812 74.3842L121.529 58.7424C110.279 60.7624 100.616 61.4715 96.3758 58.0898C95.5016 57.3824 94.6183 55.7782 94.3517 54.5239C94.0833 53.2696 94.1232 51.6982 94.4751 49.7584H133.458L134.41 43.3504C134.878 40.1582 134.99 36.9223 134.747 33.7046ZM109.851 41.4781H96.2506C96.7929 38.5139 97.7959 36.0181 99.2613 33.9854C100.725 31.9563 102.767 30.9409 105.388 30.9409C107.898 30.9409 109.414 31.9016 109.936 33.8213C110.459 35.741 110.43 38.2951 109.849 41.4818V41.4781H109.851Z" fill="white"/>
<path fill-rule="evenodd" clip-rule="evenodd" d="M65.5001 71.7334C63.0596 68.1558 61.6504 63.9696 61.4284 59.6375C61.1745 55.3314 61.4465 51.009 62.2373 46.7667C63.1079 41.9964 64.6415 37.3728 66.7932 33.0319C67.9887 30.6346 69.4312 28.3702 71.097 26.2756C74.3058 22.0764 78.3426 18.5884 82.9546 16.0301H70.3479L50.833 16.0647L46.0523 41.9338C34.3669 44.5918 35.0978 38.9659 35.544 36.5412L39.3381 16.0173H3.241L0 33.5697H6.07574L4.9948 39.4672C4.21493 43.7332 4.23306 47.2681 5.05102 50.0683C5.86898 52.8703 7.2274 55.1072 9.1263 56.7826C11.1121 58.4986 13.4827 59.7041 16.0345 60.2956C18.8638 61.0467 21.7838 61.384 24.7092 61.2983C35.1921 60.8206 40.6639 58.1189 43.3626 56.6659L41.9189 64.6837C41.0937 69.1994 41.977 72.8583 44.5687 75.6585C47.1604 78.4587 51.1922 79.6327 56.6585 79.6327C59.2418 79.6565 61.8242 79.525 64.3919 79.2389C65.8301 79.073 68.7592 78.6191 71.9966 77.9774C71.4252 77.5851 70.8703 77.1691 70.3334 76.7304C68.4642 75.3382 66.832 73.6507 65.5001 71.7334ZM140.667 0L138.168 49.9133H158.087L174 0H140.667Z" fill="white"/>
</svg>
